<svg xmlns="http://www.w3.org/2000/svg" xml:space="preserve" style="fill-rule:evenodd;clip-rule:evenodd;stroke-linejoin:round;stroke-miterlimit:2" viewBox="0 0 15 15"><path d="M65 0h15v15H65z" style="fill:none" transform="translate(-65)"/><path d="M3.354 11.648a1.5 1.5 0 0 0 2.121 0L7.5 9.623l.708.707-2.026 2.025a2.5 2.5 0 1 1-3.535-3.536l2.025-2.025.707.707-2.025 2.025a1.5 1.5 0 0 0 0 2.122M12.354 2.648a2.5 2.5 0 0 1 0 3.535l-2.025 2.025-.707-.707 2.025-2.025a1.5 1.5 0 0 0-2.121-2.121L7.5 5.38l-.707-.707 2.025-2.025a2.5 2.5 0 0 1 3.536 0"/></svg>