<svg xmlns="http://www.w3.org/2000/svg" fill="currentColor" viewBox="0 0 15 15"><path d="M11.5 1A1.503 1.503 0 0 1 13 2.5v10a1.5 1.5 0 0 1-1.5 1.5h-8A1.5 1.5 0 0 1 2 12.5v-2.207l1-1V9H2V6.914c0-.398.158-.779.439-1.06l1.415-1.415A.5.5 0 0 0 4 4.086V2.5A1.5 1.5 0 0 1 5.5 1zm0 1h-6a.5.5 0 0 0-.5.5v1.586c0 .398-.158.779-.439 1.06L3.146 6.561A.5.5 0 0 0 3 6.914V8h1v1.707l-1 1V12.5a.5.5 0 0 0 .5.5h8a.5.5 0 0 0 .5-.5v-10a.5.5 0 0 0-.146-.354A.5.5 0 0 0 11.5 2"/><path d="M7 3.25v1.5a.25.25 0 0 1-.25.25h-.5A.25.25 0 0 1 6 4.75v-1.5A.25.25 0 0 1 6.25 3h.5a.25.25 0 0 1 .25.25m2 0v1.5a.25.25 0 0 1-.25.25h-.5A.25.25 0 0 1 8 4.75v-1.5A.25.25 0 0 1 8.25 3h.5a.25.25 0 0 1 .25.25m2 0v1.5a.25.25 0 0 1-.25.25h-.5a.25.25 0 0 1-.25-.25v-1.5a.25.25 0 0 1 .25-.25h.5a.25.25 0 0 1 .25.25"/></svg>