<svg xmlns="http://www.w3.org/2000/svg" fill="currentColor" viewBox="0 0 15 15"><path d="M3 5.4a2.101 2.101 0 0 1 0 4.2 2.101 2.101 0 0 1 0-4.2m0 1a1.1 1.1 0 1 0 .001 2.201A1.1 1.1 0 0 0 3 6.4m9.242-1.73.831-.556A6.07 6.07 0 0 1 14.1 7.5a6.07 6.07 0 0 1-1.027 3.386l-.831-.556A5.07 5.07 0 0 0 13.1 7.5a5.07 5.07 0 0 0-.858-2.83m-4.984 7.876-.144.99a6.1 6.1 0 0 1-4.272-2.78l.845-.535a5.1 5.1 0 0 0 3.571 2.325M3.687 4.779l-.845-.535a6.1 6.1 0 0 1 4.272-2.78l.144.99a5.1 5.1 0 0 0-3.571 2.325M10 .9a2.101 2.101 0 0 1 0 4.2 2.101 2.101 0 0 1 0-4.2m0 1a1.1 1.1 0 1 0 .001 2.201A1.1 1.1 0 0 0 10 1.9m0 8a2.101 2.101 0 0 1 0 4.2 2.101 2.101 0 0 1 0-4.2m0 1a1.1 1.1 0 1 0 .001 2.201A1.1 1.1 0 0 0 10 10.9"/></svg>