<svg xmlns="http://www.w3.org/2000/svg" xml:space="preserve" style="fill-rule:evenodd;clip-rule:evenodd;stroke-linejoin:round;stroke-miterlimit:2" viewBox="0 0 15 15"><path d="M0 0h15v15H0z" style="fill:none"/><path d="M1 11.5v-8A1.503 1.503 0 0 1 2.5 2h4.207l2 2H12.5A1.503 1.503 0 0 1 14 5.5v6a1.503 1.503 0 0 1-1.5 1.5h-10A1.503 1.503 0 0 1 1 11.5M7.293 4l-1-1H2.5a.5.5 0 0 0-.354.146A.5.5 0 0 0 2 3.5v.586q.24-.085.5-.086zM11 5H2.5a.5.5 0 0 0-.354.146A.5.5 0 0 0 2 5.5v6c0 .133.053.26.146.354A.5.5 0 0 0 2.5 12H11v-1h1v1h.5c.133 0 .26-.053.354-.146A.5.5 0 0 0 13 11.5v-6a.5.5 0 0 0-.146-.354A.5.5 0 0 0 12.5 5H12v1h-1z"/><path d="M11 7h1v1h-1zm0 2h1v1h-1zm-1-3h1v1h-1zm0 2h1v1h-1zm0 2h1v1h-1z"/></svg>